<svg xmlns="http://www.w3.org/2000/svg" xmlns:xlink="http://www.w3.org/1999/xlink" aria-hidden="true" role="img" width="256" height="256" preserveAspectRatio="xMidYMid meet" viewBox="0 0 256 255"><path fill="#3776AB" d="M127.82.36c-13.13.05-26.11.59-36.92 1.52-32.64 3-38.57 9.23-38.57 28.8v21.68h77.81v10.84H54.2c-16.4 0-29.91 9.72-34.91 26.73c-5.91 20.27-6.2 32.97 0 53.73c4.73 14.83 13.68 26.73 30.09 26.73h18.04c19.25 0 34.18-15.96 34.18-35.47v-23.17c0-10.2 8.68-18.96 18.92-18.96h43.74c9.84 0 17.83-8.17 17.83-18.08V31.68c0-16.64-14.84-28.82-38.57-30.8c-13.5-1.07-27.08-1.37-40.2-1.32zM93.47 19.72c4.59 0 8.31 3.74 8.31 8.33c0 4.6-3.72 8.32-8.31 8.32c-4.59 0-8.32-3.72-8.32-8.32c0-4.59 3.73-8.33 8.32-8.33zM70.64 123.4c5.95 0 10.77 4.87 10.77 10.88c0 5.97-4.82 10.87-10.77 10.87c-5.97 0-10.76-4.9-10.76-10.87c0-6 4.79-10.88 10.76-10.88z"/><path fill="#FFE873" d="M127.82 255.36c13.13-.05 26.11-.59 36.92-1.52c32.64-3 38.57-9.23 38.57-28.8v-21.68h-77.81v-10.84h76.34c16.4 0 29.91-9.72 34.91-26.73c5.91-20.27 6.2-32.97 0-53.73c-4.73-14.83-13.68-26.73-30.09-26.73h-18.04c-19.25 0-34.18 15.96-34.18 35.47v23.17c0 10.2-8.68 18.96-18.92 18.96h-43.74c-9.84 0-17.83 8.17-17.83 18.08v66.4c0 16.64 14.84 28.82 38.57 30.8c13.5 1.07 27.08 1.37 40.2 1.32zM161.17 236c-4.59 0-8.31-3.74-8.31-8.33c0-4.6 3.72-8.32 8.31-8.32c4.59 0 8.32 3.72 8.32 8.32c0 4.59-3.73 8.33-8.32 8.33zm22.83-103.69c5.95 0 10.77 4.87 10.77 10.88c0 5.97-4.82 10.87-10.77 10.87c-5.97 0-10.76-4.9-10.76-10.87c0-6 4.79-10.88 10.76-10.88z"/></svg>
